<?xml version="1.0" encoding="UTF-8"?>
<svg viewBox="0 0 50 50" xmlns="http://www.w3.org/2000/svg">
  <g transform="translate(6 0)">
    <g transform="matrix(1.07208,0,0,1.07208,-318.7752,-296.5958)" fill="#0053fb">
      <path d="M312.1,277.3L312.1,294.4L305.1,298.4L305.1,306.2L299.2,309.6L299.2,290.3C299.2,286.8 301.1,283.6 304.1,281.8L312.1,277.3Z"/>
      <path d="M321.4,293L321.4,300.5L315.5,303.9L314.4,304.5L314.4,312.4L308.5,315.8L308.5,300.5L312.1,298.4L315.5,296.4L321.4,293Z"/>
      <path d="M330.6,299.1L330.6,308.8C330.6,312.3 328.7,315.5 325.7,317.3L317.7,321.9L317.7,306.6L321.3,304.5L324.7,302.5L330.6,299.1Z"/>
    </g>
  </g>
</svg>
